<svg width="12" height="45" viewBox="0 0 12 45" fill="none" xmlns="http://www.w3.org/2000/svg">
<path d="M1.09316 0.0448074L1.27316 -0.000190735C1.42316 -0.000190735 1.57316 -0.000190735 1.72316 -0.000190735H2.26316L3.52316 1.07981C6.34316 3.62981 8.39816 6.80981 9.68816 10.6198C10.9782 14.4298 11.6232 18.3898 11.6232 22.4998C11.6232 24.5398 11.4732 26.5048 11.1732 28.3948C10.8732 30.2848 10.5282 31.8898 10.1382 33.2098C9.74816 34.5298 9.19316 35.8498 8.47316 37.1698C7.75316 38.4898 7.18316 39.4948 6.76316 40.1848C6.34316 40.8748 5.72816 41.6398 4.91816 42.4798C4.10816 43.3198 3.62816 43.8148 3.47816 43.9648C3.32816 44.1148 2.98316 44.3998 2.44316 44.8198C2.35316 44.9098 2.29316 44.9698 2.26316 44.9998H1.72316C1.48316 44.9998 1.31816 44.9998 1.22816 44.9998C1.13816 44.9998 1.06316 44.9548 1.00316 44.8648C0.943164 44.7748 0.898164 44.6398 0.868164 44.4598C0.898164 44.4298 1.06316 44.2348 1.36316 43.8748C6.01316 39.0448 8.33816 31.9198 8.33816 22.4998C8.33816 13.0798 6.01316 5.95481 1.36316 1.12481C1.06316 0.764809 0.898164 0.569809 0.868164 0.539806C0.868164 0.299809 0.943164 0.134808 1.09316 0.0448074Z" fill="black"/>
</svg>
