<svg width="139" height="30" viewBox="0 0 139 30" fill="none" xmlns="http://www.w3.org/2000/svg">
<path d="M138.048 28.9988C138.6 28.9722 139.025 28.5035 138.999 27.9518L138.565 18.9623C138.539 18.4106 138.07 17.985 137.518 18.0116C136.967 18.0382 136.541 18.507 136.568 19.0586L136.953 27.0493L128.962 27.4347C128.411 27.4613 127.985 27.9301 128.012 28.4817C128.038 29.0334 128.507 29.459 129.059 29.4324L138.048 28.9988ZM1 28C1.72717 28.6865 1.727 28.6866 1.72692 28.6867C1.72703 28.6866 1.72705 28.6866 1.72726 28.6864C1.72768 28.6859 1.72848 28.6851 1.72967 28.6838C1.73205 28.6813 1.73598 28.6772 1.74145 28.6715C1.75239 28.66 1.76949 28.6422 1.79272 28.6182C1.83917 28.5703 1.91013 28.4976 2.00529 28.4019C2.19559 28.2106 2.48264 27.9271 2.86397 27.5647C3.62666 26.8398 4.76617 25.7994 6.26274 24.5485C9.25647 22.0463 13.6755 18.7047 19.3619 15.3621C30.7368 8.67568 47.1566 2 67.376 2V0C46.7078 0 29.9396 6.82432 18.3484 13.6379C12.5517 17.0453 8.04319 20.4537 4.98011 23.014C3.44828 24.2943 2.27707 25.3633 1.48616 26.115C1.09067 26.4909 0.790193 26.7875 0.587172 26.9916C0.485659 27.0937 0.408504 27.1727 0.356013 27.2269C0.329768 27.254 0.309688 27.2749 0.295811 27.2894C0.288873 27.2967 0.283486 27.3023 0.279654 27.3063C0.277738 27.3084 0.276211 27.31 0.275074 27.3112C0.274505 27.3118 0.273944 27.3124 0.27366 27.3127C0.273197 27.3132 0.272831 27.3135 1 28ZM67.376 2C87.6021 2 105.093 8.67979 117.547 15.3806C123.77 18.7292 128.725 22.0773 132.121 24.5856C133.818 25.8395 135.125 26.8829 136.005 27.6105C136.445 27.9744 136.779 28.2592 137 28.4519C137.111 28.5483 137.195 28.6216 137.249 28.6702C137.277 28.6945 137.297 28.7126 137.31 28.7244C137.317 28.7303 137.321 28.7346 137.324 28.7372C137.326 28.7386 137.327 28.7395 137.327 28.74C137.328 28.7403 137.328 28.7404 137.328 28.7405C137.328 28.7405 137.328 28.7404 138 28C138.672 27.2597 138.672 27.2593 138.671 27.2589C138.671 27.2586 138.67 27.2581 138.67 27.2575C138.669 27.2564 138.667 27.2549 138.665 27.2529C138.661 27.2491 138.654 27.2436 138.646 27.2365C138.631 27.2223 138.608 27.2017 138.578 27.1749C138.517 27.1214 138.428 27.0431 138.312 26.9417C138.078 26.7389 137.733 26.4436 137.28 26.0691C136.374 25.3203 135.038 24.2542 133.309 22.9769C129.851 20.4227 124.816 17.0208 118.495 13.6194C105.858 6.82021 88.0374 0 67.376 0V2Z" fill="#DEDEDC"/>
</svg>
