<svg width="31" height="11" viewBox="0 0 31 11" fill="none" xmlns="http://www.w3.org/2000/svg">
<path d="M0.821289 1.13482C0.821289 0.744816 1.03129 0.444816 1.45129 0.234816H30.1163C30.5663 0.474816 30.7913 0.774816 30.7913 1.13482C30.7913 1.46482 30.5813 1.74982 30.1613 1.98982L15.8513 2.03482H1.54129C1.06129 1.88482 0.821289 1.58482 0.821289 1.13482ZM0.821289 9.86482C0.821289 9.41482 1.06129 9.11482 1.54129 8.96482H30.1613C30.5813 9.26482 30.7913 9.56482 30.7913 9.86482C30.7913 10.2548 30.5663 10.5548 30.1163 10.7648H1.45129C1.03129 10.5548 0.821289 10.2548 0.821289 9.86482Z" fill="black"/>
</svg>
