<svg width="11" height="45" viewBox="0 0 11 45" fill="none" xmlns="http://www.w3.org/2000/svg">
<path d="M0 22.4998C0 20.4298 0.15 18.4648 0.45 16.6048C0.75 14.7448 1.095 13.1398 1.485 11.7898C1.875 10.4398 2.43 9.11981 3.15 7.82981C3.87 6.53981 4.44 5.53481 4.86 4.81481C5.28 4.09481 5.91 3.31481 6.75 2.47481C7.59 1.63481 8.085 1.12481 8.235 0.944809C8.385 0.764809 8.76 0.449806 9.36 -0.000190735H9.945H10.125C10.545 -0.000190735 10.755 0.134808 10.755 0.404808C10.755 0.494808 10.5 0.809807 9.99 1.34981C9.48 1.88981 8.865 2.68481 8.145 3.73481C7.425 4.78481 6.69 6.07481 5.94 7.60481C5.19 9.13481 4.56 11.2048 4.05 13.8148C3.54 16.4248 3.285 19.3198 3.285 22.4998C3.285 25.6798 3.54 28.5598 4.05 31.1398C4.56 33.7198 5.175 35.8048 5.895 37.3948C6.615 38.9848 7.35 40.2748 8.1 41.2648C8.85 42.2548 9.48 43.0498 9.99 43.6498C10.5 44.2498 10.755 44.5648 10.755 44.5948C10.755 44.8648 10.53 44.9998 10.08 44.9998H9.945H9.36L8.1 43.9198C5.28 41.3698 3.225 38.1898 1.935 34.3798C0.645 30.5698 0 26.6098 0 22.4998Z" fill="black"/>
</svg>
