<svg width="31" height="31" viewBox="0 0 31 31" fill="none" xmlns="http://www.w3.org/2000/svg">
<path d="M0.666504 16.0848C0.666504 16.0848 0.666504 15.8898 0.666504 15.4998C0.666504 15.1098 0.876504 14.8098 1.2965 14.5998H14.7515V7.84981L14.7965 1.09981C15.0965 0.709808 15.3815 0.514809 15.6515 0.514809C16.0415 0.514809 16.3415 0.739809 16.5515 1.18981V14.5998H29.9615C30.4115 14.8398 30.6365 15.1398 30.6365 15.4998C30.6365 15.8598 30.4115 16.1598 29.9615 16.3998H16.5515V29.8098C16.3115 30.2298 16.0415 30.4398 15.7415 30.4398H15.6515H15.5615C15.2015 30.4398 14.9315 30.2298 14.7515 29.8098V16.3998H1.2965C0.876504 16.1898 0.666504 15.8898 0.666504 15.4998V16.0848Z" fill="black"/>
</svg>
