<svg width="34" height="4" viewBox="0 0 34 4" fill="none" xmlns="http://www.w3.org/2000/svg">
<path d="M0 1.95957C0 1.43702 0.185071 0.979786 0.555212 0.587872C0.925353 0.195957 1.39347 0 1.95957 0C2.48212 0 2.93936 0.174184 3.33127 0.522552C3.72319 0.870921 3.93003 1.33904 3.9518 1.92691C3.9518 2.47124 3.76673 2.93936 3.39659 3.33127C3.02645 3.72319 2.55833 3.91914 1.99223 3.91914C1.42613 3.91914 0.958013 3.73407 0.587872 3.36393C0.21773 2.99379 0.021773 2.52567 0 1.95957ZM14.5988 1.95957C14.5988 1.43702 14.7839 0.979786 15.154 0.587872C15.5242 0.195957 15.9923 0 16.5584 0C17.0809 0 17.5382 0.174184 17.9301 0.522552C18.322 0.870921 18.5288 1.33904 18.5506 1.92691C18.5506 2.47124 18.3655 2.93936 17.9954 3.33127C17.6253 3.72319 17.1571 3.91914 16.591 3.91914C16.0249 3.91914 15.5568 3.73407 15.1867 3.36393C14.8165 2.99379 14.6206 2.52567 14.5988 1.95957ZM29.1976 1.95957C29.1976 1.43702 29.3827 0.979786 29.7528 0.587872C30.123 0.195957 30.5911 0 31.1572 0C31.6797 0 32.137 0.174184 32.5289 0.522552C32.9208 0.870921 33.1277 1.33904 33.1494 1.92691C33.1494 2.47124 32.9644 2.93936 32.5942 3.33127C32.2241 3.72319 31.756 3.91914 31.1899 3.91914C30.6238 3.91914 30.1556 3.73407 29.7855 3.36393C29.4154 2.99379 29.2194 2.52567 29.1976 1.95957Z" fill="black"/>
</svg>
