<svg width="22" height="30" viewBox="0 0 22 30" fill="none" xmlns="http://www.w3.org/2000/svg">
<path d="M0.100586 7.83481C0.100586 7.41481 0.325586 6.69481 0.775586 5.67481C1.22559 4.65481 1.94559 3.58981 2.93559 2.47981C3.92559 1.36981 5.03558 0.829811 6.26558 0.859812C7.49558 0.859812 8.48558 1.20481 9.23558 1.89481C9.98558 2.58481 10.3756 3.54481 10.4056 4.77481C10.3456 5.34481 10.3006 5.65981 10.2706 5.71981C10.2706 5.80981 10.0306 6.49981 9.55058 7.78981C9.07058 9.07981 8.57558 10.5348 8.06558 12.1548C7.55558 13.7748 7.31558 15.0648 7.34558 16.0248C7.34558 17.3148 7.55558 18.2148 7.97558 18.7248C8.39558 19.2348 9.02558 19.5048 9.86558 19.5348C10.5556 19.5348 11.2006 19.3698 11.8006 19.0398C12.4006 18.7098 12.8656 18.3648 13.1956 18.0048C13.5256 17.6448 13.9306 17.1498 14.4106 16.5198C14.4106 16.4898 14.4856 16.1898 14.6356 15.6198C14.7856 15.0498 14.9956 14.1648 15.2656 12.9648C15.5356 11.7648 15.8206 10.6548 16.1206 9.63481C17.2606 5.13481 17.8906 2.77981 18.0106 2.56981C18.4006 1.75981 19.0456 1.35481 19.9456 1.35481C20.3356 1.35481 20.6506 1.45981 20.8906 1.66981C21.1306 1.87981 21.2956 2.05981 21.3856 2.20981C21.4756 2.35981 21.5056 2.49481 21.4756 2.61481C21.4756 3.00481 20.7406 6.15481 19.2706 12.0648C17.8006 17.9748 16.9606 21.2148 16.7506 21.7848C15.9106 24.2748 14.4556 26.2548 12.3856 27.7248C10.3156 29.1948 8.24558 29.9448 6.17558 29.9748C4.82558 29.9748 3.64059 29.6448 2.62059 28.9848C1.60059 28.3248 1.09059 27.3348 1.09059 26.0148C1.09059 25.3548 1.19559 24.7998 1.40559 24.3498C1.61559 23.8998 1.90059 23.5698 2.26059 23.3598C2.62059 23.1498 2.92059 22.9998 3.16059 22.9098C3.40059 22.8198 3.65559 22.7748 3.92559 22.7748C5.24558 22.7748 5.90558 23.4048 5.90558 24.6648C5.90558 25.2648 5.72558 25.7898 5.36558 26.2398C5.00558 26.6898 4.66058 26.9898 4.33059 27.1398C4.00059 27.2898 3.80559 27.3648 3.74559 27.3648L3.61059 27.4098C3.67059 27.5598 3.95559 27.7398 4.46559 27.9498C4.97558 28.1598 5.48558 28.2648 5.99558 28.2648H6.35558C6.86558 28.2648 7.25558 28.2348 7.52558 28.1748C8.51558 27.9048 9.43058 27.3348 10.2706 26.4648C11.1106 25.5948 11.7556 24.6648 12.2056 23.6748C12.6556 22.6848 13.0006 21.8448 13.2406 21.1548C13.4806 20.4648 13.6006 20.0148 13.6006 19.8048L13.3306 19.9848C13.1506 20.1048 12.8656 20.2698 12.4756 20.4798C12.0856 20.6898 11.6956 20.8698 11.3056 21.0198C10.7056 21.1698 10.1206 21.2448 9.55058 21.2448C8.17058 21.2448 6.95558 20.9148 5.90558 20.2548C4.85559 19.5948 4.16559 18.5298 3.83559 17.0598C3.80559 16.8498 3.79059 16.3848 3.79059 15.6648C3.79059 13.9548 4.31559 11.7198 5.36558 8.95981C6.41558 6.19981 6.94058 4.44481 6.94058 3.69481C6.94058 3.66481 6.94058 3.63481 6.94058 3.60481C6.94058 3.33481 6.94058 3.15481 6.94058 3.06481C6.94058 2.97481 6.88058 2.86981 6.76058 2.74981C6.64058 2.62981 6.47558 2.56981 6.26558 2.56981H6.08558C5.39559 2.56981 4.76558 2.85481 4.19559 3.42481C3.62559 3.99481 3.17559 4.60981 2.84559 5.26981C2.51559 5.92981 2.26059 6.55981 2.08059 7.15981C1.90059 7.75981 1.78059 8.08981 1.72059 8.14981C1.66059 8.20981 1.42059 8.23981 1.00059 8.23981H0.370586C0.190586 8.05981 0.100586 7.92481 0.100586 7.83481Z" fill="black"/>
</svg>
