<svg width="23" height="22" viewBox="0 0 23 22" fill="none" xmlns="http://www.w3.org/2000/svg">
<path d="M0.760254 13.6848C0.760254 10.6548 1.90025 7.7748 4.18025 5.0448C6.46026 2.3148 9.02526 0.934797 11.8753 0.904799C13.4053 0.904799 14.7553 1.6398 15.9253 3.1098C16.4053 2.2098 17.0953 1.7598 17.9953 1.7598C18.3853 1.7598 18.7303 1.8798 19.0303 2.1198C19.3303 2.3598 19.4803 2.6598 19.4803 3.0198C19.4803 3.4098 18.9253 5.8098 17.8153 10.2198C16.7053 14.6298 16.1353 17.1198 16.1053 17.6898C16.1053 18.4398 16.2103 18.9348 16.4203 19.1748C16.6303 19.4148 16.9453 19.5498 17.3653 19.5798C17.6353 19.5498 17.9353 19.4148 18.2653 19.1748C18.8953 18.5748 19.5103 17.1348 20.1103 14.8548C20.2903 14.2548 20.4403 13.9398 20.5603 13.9098C20.6203 13.8798 20.7703 13.8648 21.0103 13.8648H21.1903C21.7603 13.8648 22.0453 13.9998 22.0453 14.2698C22.0453 14.4498 21.9703 14.8548 21.8203 15.4848C21.6703 16.1148 21.3703 16.9248 20.9203 17.9148C20.4703 18.9048 19.9903 19.6548 19.4803 20.1648C19.0903 20.5548 18.6103 20.8698 18.0403 21.1098C17.8003 21.1698 17.4403 21.1998 16.9603 21.1998C15.9403 21.1998 15.0853 20.9748 14.3953 20.5248C13.7053 20.0748 13.2553 19.6098 13.0453 19.1298L12.7753 18.4548C12.7453 18.4248 12.6853 18.4398 12.5953 18.4998C12.5353 18.5598 12.4753 18.6198 12.4153 18.6798C10.6453 20.3598 8.84526 21.1998 7.01525 21.1998C5.36525 21.1998 3.91025 20.5998 2.65025 19.3998C1.39025 18.1998 0.760254 16.2948 0.760254 13.6848ZM15.0703 5.9898C15.0703 5.8098 14.9953 5.4798 14.8453 4.9998C14.6953 4.5198 14.3503 3.9948 13.8103 3.4248C13.2703 2.8548 12.5803 2.5548 11.7403 2.5248C10.6903 2.5248 9.68526 2.9898 8.72526 3.9198C7.76526 4.8498 7.01525 6.0648 6.47526 7.5648C5.60525 9.9348 4.99025 12.3948 4.63025 14.9448C4.63025 15.0348 4.63025 15.1998 4.63025 15.4398C4.63025 15.6798 4.61525 15.8598 4.58525 15.9798C4.58525 17.3298 4.85525 18.2598 5.39526 18.7698C5.93526 19.2798 6.58026 19.5498 7.33026 19.5798C8.47026 19.5798 9.59526 19.0848 10.7053 18.0948C11.8153 17.1048 12.4753 16.3398 12.6853 15.7998C12.7453 15.6798 13.1503 14.0748 13.9003 10.9848C14.6503 7.8948 15.0403 6.2298 15.0703 5.9898Z" fill="black"/>
</svg>
