<svg width="23" height="22" viewBox="0 0 23 22" fill="none" xmlns="http://www.w3.org/2000/svg">
<path d="M1.74303 7.7448C1.95303 6.4848 2.76303 5.0298 4.17303 3.3798C5.58303 1.7298 7.32303 0.889795 9.39302 0.859797C10.443 0.859797 11.403 1.1298 12.273 1.6698C13.143 2.2098 13.788 2.8848 14.208 3.6948C15.468 1.8048 16.983 0.859797 18.753 0.859797C19.863 0.859797 20.823 1.1898 21.633 1.8498C22.443 2.5098 22.863 3.3948 22.893 4.5048C22.893 5.3748 22.683 6.0798 22.263 6.6198C21.843 7.1598 21.438 7.4898 21.048 7.6098C20.658 7.7298 20.313 7.7898 20.013 7.7898C19.443 7.7898 18.978 7.6248 18.618 7.2948C18.258 6.9648 18.078 6.5298 18.078 5.9898C18.078 4.6098 18.828 3.6648 20.328 3.1548C19.998 2.7648 19.398 2.5698 18.528 2.5698C18.138 2.5698 17.853 2.5998 17.673 2.6598C16.533 3.1398 15.693 4.1298 15.153 5.6298C13.353 12.2598 12.453 16.1298 12.453 17.2398C12.453 18.0798 12.693 18.6798 13.173 19.0398C13.653 19.3998 14.178 19.5798 14.748 19.5798C15.858 19.5798 16.953 19.0848 18.033 18.0948C19.113 17.1048 19.848 15.8898 20.238 14.4498C20.328 14.1498 20.418 13.9848 20.508 13.9548C20.598 13.9248 20.838 13.8948 21.228 13.8648H21.408C21.858 13.8648 22.083 13.9848 22.083 14.2248C22.083 14.2548 22.053 14.4198 21.993 14.7198C21.513 16.4298 20.583 17.9448 19.203 19.2648C17.823 20.5848 16.218 21.2448 14.388 21.2448C12.288 21.2448 10.698 20.2998 9.61802 18.4098C8.38803 20.2698 6.97803 21.1998 5.38803 21.1998H5.11803C3.64803 21.1998 2.59803 20.8098 1.96803 20.0298C1.33803 19.2498 1.00803 18.4248 0.978027 17.5548C0.978027 16.5948 1.26303 15.8148 1.83303 15.2148C2.40303 14.6148 3.07803 14.3148 3.85803 14.3148C5.14803 14.3148 5.79303 14.9448 5.79303 16.2048C5.79303 16.8048 5.61303 17.3298 5.25303 17.7798C4.89303 18.2298 4.54803 18.5298 4.21803 18.6798C3.88803 18.8298 3.69303 18.9048 3.63303 18.9048L3.49803 18.9498C3.49803 18.9798 3.58803 19.0398 3.76803 19.1298C3.94803 19.2198 4.18803 19.3248 4.48803 19.4448C4.78803 19.5648 5.07303 19.6098 5.34303 19.5798C6.42303 19.5798 7.35303 18.9048 8.13303 17.5548C8.40303 17.0748 8.74802 16.0548 9.16803 14.4948C9.58803 12.9348 10.008 11.3148 10.428 9.6348C10.848 7.9548 11.088 6.9648 11.148 6.6648C11.298 5.8548 11.373 5.2698 11.373 4.9098C11.373 4.0698 11.148 3.4698 10.698 3.1098C10.248 2.7498 9.73802 2.5698 9.16803 2.5698C7.96803 2.5698 6.84303 3.0498 5.79303 4.0098C4.74303 4.9698 4.00803 6.1998 3.58803 7.6998C3.52803 7.9698 3.45303 8.1198 3.36303 8.1498C3.27303 8.1798 3.03303 8.2098 2.64303 8.2398H2.01303C1.83303 8.0598 1.74303 7.8948 1.74303 7.7448Z" fill="black"/>
</svg>
