<svg width="19" height="33" viewBox="0 0 19 33" fill="none" xmlns="http://www.w3.org/2000/svg">
<path d="M2.37318 2.6348C2.37318 2.33479 2.43318 1.9898 2.55318 1.5998C2.67318 1.20979 2.85318 1.0148 3.09318 1.0148C3.12318 1.0148 4.20318 0.939796 6.33318 0.789795C8.46318 0.639795 9.55818 0.549795 9.61819 0.519796C9.97818 0.519796 10.1582 0.654795 10.1582 0.924795C10.1582 1.1948 9.64818 3.3398 8.62818 7.3598C8.38818 8.3798 8.13318 9.4298 7.86318 10.5098C7.59318 11.5898 7.36818 12.3998 7.18818 12.9398L7.00818 13.7948C7.00818 13.8848 7.09818 13.8398 7.27818 13.6598C8.74818 12.4598 10.2632 11.8598 11.8232 11.8598C13.6832 11.8598 15.1832 12.5498 16.3232 13.9298C17.4632 15.3098 18.0482 17.0498 18.0782 19.1498C18.0782 22.4798 16.8932 25.4948 14.5232 28.1948C12.1532 30.8948 9.60318 32.2448 6.87318 32.2448C5.37318 32.2448 4.00818 31.6748 2.77818 30.5348C1.54818 29.3948 0.918184 27.5498 0.888184 24.9998V24.5948C0.888184 23.9648 1.00818 23.0948 1.24818 21.9848C1.48818 20.8748 2.22318 17.9198 3.45318 13.1198C4.95318 7.2098 5.70318 4.07479 5.70318 3.7148C5.70318 3.3548 5.13318 3.1448 3.99318 3.08479C3.84318 3.08479 3.72318 3.08479 3.63318 3.08479H3.40818C3.10818 3.08479 2.91318 3.08479 2.82318 3.08479C2.73318 3.08479 2.62818 3.03979 2.50818 2.94979C2.38818 2.8598 2.34318 2.7548 2.37318 2.6348ZM14.2082 17.1248V16.8548C14.2082 14.6348 13.2932 13.5248 11.4632 13.5248C10.9532 13.5248 10.4282 13.6448 9.88818 13.8848C9.34818 14.1248 8.85318 14.4398 8.40318 14.8298C7.95318 15.2198 7.56318 15.5798 7.23318 15.9098C6.90318 16.2398 6.63318 16.5698 6.42318 16.8998L6.15318 17.2598L5.20818 21.1298C4.54818 23.7098 4.21818 25.5398 4.21818 26.6198C4.21818 28.0598 4.57818 29.1398 5.29818 29.8598C5.77818 30.3398 6.37818 30.5798 7.09818 30.5798C8.08818 30.5798 9.09318 30.0998 10.1132 29.1398C10.8632 28.4498 11.4632 27.6098 11.9132 26.6198C12.3632 25.6298 12.8582 24.0548 13.3982 21.8948C13.9382 19.7348 14.2082 18.1448 14.2082 17.1248Z" fill="black"/>
</svg>
